<svg width="35" height="21" viewBox="0 0 383 217" fill="none" xmlns="http://www.w3.org/2000/svg">
<path d="M159.935 10.2064C168.754 1.38881 176.951 0 189.199 0C212.384 1.78308 222.837 3.6916 239.561 20.4128C243.921 24.7718 249.969 27.309 253.854 32.0556C257.461 36.4633 261.156 39.8857 265.121 43.8497C269.514 48.2415 276.918 50.688 282.438 53.7536C288.352 57.0389 295.005 60.2678 301.418 62.5992C313.508 66.9947 323.674 66.3288 336.203 68.1182C344.858 69.3544 361.026 71.1888 365.845 80.2903C368.351 85.0219 371.592 91.6996 371.592 97.3009C371.592 101.552 372.852 108.979 374.617 112.951C376.841 117.954 382.482 124.775 382.482 130.037C382.482 132.793 384.018 143.838 381.801 145.611C377.269 149.236 373.318 148.01 367.509 148.333C362.313 148.621 356.866 153.469 353.898 157.178C350.654 161.232 346.303 166.584 341.647 169.048C336.67 171.683 332.589 168.746 328.036 168.746C313.768 168.746 286.953 144.027 272.985 150.374C267.783 152.738 260.939 151.174 256.198 155.439C253.68 157.705 251.276 164.693 250.526 168.065C248.835 175.672 240.005 189.92 232.756 193.543C223.734 198.053 211.826 192.41 202.811 191.88C198.16 191.607 193.998 187.798 188.519 187.798C182.774 187.798 175.57 186.54 170.143 188.478C164.849 190.368 157.248 191.992 154.112 197.323C151.056 202.517 144.771 206.613 139.593 209.571C134.625 212.409 131.501 216.375 125.225 216.375C121.27 216.375 111.775 218.16 108.816 215.695C104.439 212.048 100.151 212.907 96.9438 206.849C94.4228 202.089 91.8052 196.571 87.7938 192.561C79.9735 184.742 70.8281 183.715 59.8904 183.715C54.1728 183.715 48.9229 186.437 42.8761 186.437C37.689 186.437 32.3997 186.741 27.2229 186.437C19.4486 185.979 13.7894 173.064 10.8892 167.99C6.12194 159.649 8.16687 147.762 8.16687 138.126C8.16687 132.503 13.3171 127.773 13.6114 122.477C13.939 116.582 8.77394 112.666 8.16687 107.507C6.78491 95.7632 0 85.7983 0 73.486C0 68.6113 0.43377 63.1255 2.72229 59.1214C5.8609 53.6301 11.3489 52.8388 14.9726 48.3102C20.5915 41.2881 38.1411 43.1757 45.5984 44.8325C50.4813 45.9174 54.9069 49.7653 59.8904 50.3515C64.9276 50.944 70.4993 51.7124 76.2241 51.7124C99.0042 51.7124 119.786 48.7146 138.156 34.0213C146.554 27.3041 152.279 17.8604 159.935 10.2064Z" fill="#E91E25"/>
<path d="M174.764 126.461C179.029 123.144 182.978 122.292 188.23 122.292C188.54 122.292 192.41 122.01 195.294 121.85C197.324 121.737 200.507 120.563 202.359 119.741C203.351 119.3 205.727 119.231 206.774 119.201C208.073 119.164 209.22 118.759 210.527 118.759C212.274 118.759 214.85 117.823 216.708 117.41C218.613 116.987 220.397 115.151 221.54 113.682C224.177 110.291 223.552 106.045 223.552 101.982C223.552 97.7451 220.929 93.2872 216.929 91.287C212.28 88.9623 206.713 90.1147 201.942 91.6059C192.492 94.5589 185.196 105.072 174.764 105.072C172.727 105.072 170.132 105.49 168.141 105.048C165.503 104.461 163.148 102.865 160.414 102.865H153.129C150.431 102.865 147.666 103.904 144.961 104.189C140.939 104.613 133.481 107.137 133.481 112.137C133.481 115.793 135.889 119.678 138.093 122.512C140.676 125.834 143.423 131.597 147.855 132.864C148.981 133.185 150.222 133.926 151.339 134.433C152.448 134.938 154.126 134.654 155.337 134.654C158.239 134.654 161.271 134.617 163.946 133.428C165.925 132.548 167.96 132.215 169.686 130.68C171.303 129.243 173.055 127.79 174.764 126.461Z" fill="black"/>
</svg>
